<?xml version="1.0" encoding="utf-8"?>
<!-- Generator: Adobe Illustrator 18.1.1, SVG Export Plug-In . SVG Version: 6.00 Build 0)  -->
<svg version="1.1" xmlns="http://www.w3.org/2000/svg" xmlns:xlink="http://www.w3.org/1999/xlink" x="0px" y="0px"
	 viewBox="0 0 141.7 141.7" enable-background="new 0 0 141.7 141.7" xml:space="preserve">
<g id="Layer_1">
	<circle cx="70.9" cy="70.9" r="64"/>
	<circle cx="70.5" cy="71.4" r="31.3"/>
	<g>
		<path fill="#FFFFFF" d="M103,68.7c-0.1-1,0.4-1.9,1.1-2.4c-0.9-0.3-1.5-1.1-1.7-2.1c-0.2-1,0.1-1.9,0.8-2.6
			c-0.9-0.2-1.7-0.9-2-1.8c-0.3-0.9-0.1-1.9,0.4-2.7c-0.9-0.1-1.8-0.6-2.2-1.5c-0.5-0.9-0.4-1.9,0-2.7c-0.9,0-1.8-0.4-2.4-1.2
			c-0.6-0.8-0.7-1.8-0.3-2.7c-0.9,0.2-1.9-0.1-2.5-0.8c-0.7-0.7-0.9-1.7-0.7-2.6c-0.9,0.3-1.9,0.1-2.6-0.5c-0.8-0.6-1.1-1.6-1.1-2.5
			c-0.8,0.4-1.8,0.4-2.7-0.1c-0.9-0.5-1.3-1.4-1.4-2.3c-0.8,0.5-1.8,0.7-2.7,0.3c-0.9-0.4-1.5-1.2-1.7-2.1c-0.7,0.6-1.6,0.9-2.6,0.6
			c-1-0.2-1.7-1-2-1.8c-0.6,0.7-1.5,1.1-2.5,1c-1-0.1-1.8-0.7-2.2-1.5c-0.5,0.8-1.3,1.3-2.3,1.3c-1,0-1.9-0.5-2.4-1.2
			c-0.4,0.8-1.1,1.5-2.1,1.6c-1,0.2-1.9-0.2-2.5-0.9c-0.3,0.9-0.9,1.6-1.9,1.9c-0.9,0.3-1.9,0.1-2.6-0.5c-0.1,0.9-0.7,1.7-1.6,2.2
			c-0.9,0.4-1.9,0.3-2.7-0.1c0,0.9-0.4,1.8-1.3,2.4c-0.8,0.5-1.8,0.6-2.7,0.2c0.1,0.9-0.2,1.9-0.9,2.5c-0.7,0.7-1.7,0.9-2.6,0.6
			c0.3,0.9,0.1,1.9-0.6,2.6c-0.6,0.8-1.6,1.1-2.5,1c0.4,0.8,0.3,1.8-0.2,2.7c-0.5,0.8-1.4,1.3-2.3,1.3c0.5,0.8,0.6,1.8,0.2,2.7
			c-0.4,0.9-1.2,1.5-2.1,1.6c0.6,0.7,0.8,1.7,0.6,2.6c-0.3,0.9-1,1.6-1.9,1.9c0.7,0.6,1.1,1.5,0.9,2.5s-0.8,1.8-1.6,2.1
			c0.8,0.5,1.3,1.4,1.3,2.4c0,1-0.5,1.9-1.3,2.3c0.8,0.4,1.4,1.2,1.6,2.2c0.1,1-0.3,1.9-1,2.5c0.9,0.3,1.6,1,1.9,1.9s0,1.9-0.6,2.6
			c0.9,0.2,1.7,0.7,2.1,1.7c0.4,0.9,0.3,1.9-0.2,2.7c0.9,0,1.8,0.5,2.3,1.3c0.5,0.8,0.5,1.8,0.1,2.7c0.9-0.1,1.9,0.2,2.5,1
			c0.6,0.8,0.8,1.8,0.5,2.6c0.9-0.2,1.9,0,2.6,0.7c0.7,0.7,1,1.6,0.9,2.5c0.9-0.3,1.9-0.3,2.7,0.3c0.8,0.6,1.2,1.5,1.2,2.4
			c0.8-0.5,1.8-0.5,2.7-0.1c0.9,0.4,1.4,1.3,1.5,2.2c0.7-0.6,1.7-0.8,2.6-0.5s1.6,1.1,1.8,2c0.6-0.7,1.6-1,2.6-0.8
			c1,0.2,1.7,0.8,2.1,1.7c0.5-0.7,1.4-1.2,2.4-1.2c1,0,1.8,0.6,2.3,1.4c0.4-0.8,1.2-1.4,2.2-1.5c1-0.1,1.9,0.3,2.5,1
			c0.3-0.9,1-1.6,2-1.8c1-0.2,1.9,0.1,2.6,0.7c0.2-0.9,0.8-1.7,1.7-2.1c0.9-0.4,1.9-0.2,2.7,0.3c0.1-0.9,0.6-1.8,1.4-2.3
			c0.9-0.5,1.9-0.5,2.7-0.1c-0.1-0.9,0.3-1.8,1.1-2.4c0.8-0.6,1.8-0.7,2.6-0.4c-0.2-0.9,0.1-1.9,0.7-2.6c0.7-0.7,1.7-1,2.6-0.8
			c-0.3-0.9-0.2-1.9,0.4-2.7c0.6-0.8,1.5-1.2,2.4-1.1c-0.4-0.8-0.5-1.8,0-2.7c0.5-0.9,1.3-1.4,2.2-1.5c-0.5-0.7-0.7-1.7-0.4-2.7
			c0.3-0.9,1.1-1.6,2-1.8c-0.6-0.7-0.9-1.6-0.7-2.6c0.2-1,0.9-1.7,1.8-2c-0.7-0.6-1.2-1.5-1.1-2.5c0.1-1,0.7-1.8,1.5-2.3
			C103.6,70.5,103,69.7,103,68.7z M75.1,97.9c-15,2.5-29.3-7.6-31.8-22.7C40.8,60.2,51,46,66,43.5c15-2.5,29.3,7.6,31.8,22.7
			S90.2,95.4,75.1,97.9z"/>
		<circle fill="none" stroke="#FFFFFF" stroke-width="1.6357" stroke-miterlimit="10" cx="70.6" cy="70.7" r="22.8"/>
		<circle fill="none" stroke="#FFFFFF" stroke-width="0.5452" stroke-miterlimit="10" cx="70.6" cy="70.7" r="25.7"/>
	</g>
	<path stroke="#FFFFFF" stroke-width="1.7936" stroke-miterlimit="10" d="M107.3,82.8H33.8c-3.6,0-6.6-3-6.6-6.6v-9.6
		c0-3.6,3-6.6,6.6-6.6h73.5c3.6,0,6.6,3,6.6,6.6v9.6C113.9,79.8,110.9,82.8,107.3,82.8z"/>
</g>
<g id="Layer_2">
</g>
</svg>
