<?xml version="1.0" encoding="utf-8"?>
<!-- Generator: Adobe Illustrator 18.1.1, SVG Export Plug-In . SVG Version: 6.00 Build 0)  -->
<svg version="1.1" xmlns="http://www.w3.org/2000/svg" xmlns:xlink="http://www.w3.org/1999/xlink" x="0px" y="0px"
	 viewBox="0 0 141.7 141.7" enable-background="new 0 0 141.7 141.7" xml:space="preserve">
<g id="Layer_1">
	<circle cx="70.9" cy="70.9" r="64"/>
	<g>
		<path fill="#FFFFFF" stroke="#FFFFFF" stroke-width="2.9142" stroke-linejoin="round" stroke-miterlimit="10" d="M91.9,31.9H33.9
			c-2.1,0-3.9,1.7-3.9,3.9V62c0,2.1,1.7,3.9,3.9,3.9h5.7l0.4,3.9l0.7,6.7l3.7-5.6l3.3-5h44.3c2.1,0,3.9-1.7,3.9-3.9V35.7
			C95.8,33.6,94.1,31.9,91.9,31.9z"/>
		<path fill="#FFFFFF" stroke="#FFFFFF" stroke-width="2.9142" stroke-linejoin="round" stroke-miterlimit="10" d="M63.8,76.3h44.4
			c1.6,0,3,1.3,3,3v20c0,1.6-1.3,3-3,3h-4.4l-0.3,3l-0.5,5.2l-2.9-4.3l-2.5-3.8H63.8c-1.6,0-3-1.3-3-3v-20
			C60.9,77.6,62.2,76.3,63.8,76.3z"/>
		<circle cx="76.4" cy="89.3" r="1.3"/>
		<circle cx="81.2" cy="89.3" r="1.3"/>
		<circle cx="85.9" cy="89.3" r="1.3"/>
		<circle cx="90.6" cy="89.3" r="1.3"/>
		<circle cx="95.3" cy="89.3" r="1.3"/>
		<line fill="none" stroke="#000000" stroke-width="1.6692" stroke-miterlimit="10" x1="37.1" y1="41.7" x2="88.3" y2="41.7"/>
		<line fill="none" stroke="#000000" stroke-width="1.6692" stroke-miterlimit="10" x1="37.1" y1="45.8" x2="88.3" y2="45.8"/>
		<line fill="none" stroke="#000000" stroke-width="1.6692" stroke-miterlimit="10" x1="37.1" y1="49.9" x2="88.3" y2="49.9"/>
		<line fill="none" stroke="#000000" stroke-width="1.4726" stroke-miterlimit="10" x1="37.1" y1="54.1" x2="77" y2="54.1"/>
	</g>
</g>
<g id="Layer_2">
</g>
</svg>
