<?xml version="1.0" encoding="utf-8"?>
<!-- Generator: Adobe Illustrator 18.1.1, SVG Export Plug-In . SVG Version: 6.00 Build 0)  -->
<svg version="1.1" xmlns="http://www.w3.org/2000/svg" xmlns:xlink="http://www.w3.org/1999/xlink" x="0px" y="0px"
	 viewBox="0 0 141.7 141.7" enable-background="new 0 0 141.7 141.7" xml:space="preserve">
<g id="Layer_1">
	<circle cx="70.9" cy="70.9" r="64"/>
	<g>
		<path fill="#FFFFFF" d="M62.3,63.3c0,3.1,1.8,4.6,5.5,4.6c0,0,0.3,0,0.9,0.1v-9.1l-0.9,0C64.2,58.9,62.3,60.4,62.3,63.3z"/>
		<path fill="#FFFFFF" d="M78.6,74.5c-0.9-0.6-2.7-0.9-5.6-0.9v9.8h0.9c4,0,6-1.7,6-5.2C79.9,76.4,79.5,75.1,78.6,74.5z"/>
		<path fill="#FFFFFF" d="M70.9,37.3c-18.5,0-33.5,15-33.5,33.5s15,33.5,33.5,33.5s33.5-15,33.5-33.5S89.4,37.3,70.9,37.3z
			 M83.6,86.4c-1.8,1.6-4.9,2.4-9.3,2.4l-1.3,0v4.1h-4.2v-4.1l-1.2,0c-4.4,0-7.5-0.8-9.3-2.3c-1.8-1.5-2.7-4.1-2.7-7.9l0-1.3h6.2V78
			c0,2.3,0.4,3.7,1.1,4.4c0.7,0.7,2.4,1,4.9,1l0.9,0v-10c-4.9,0-8.3-0.7-10.1-2.1c-1.8-1.4-2.7-4.1-2.7-8c0-3.8,0.9-6.4,2.7-7.8
			c1.8-1.4,5.2-2.1,10.1-2.1v-3.6H73v3.6c4.7,0,7.9,0.7,9.6,2c1.7,1.3,2.6,3.8,2.6,7.5v0.8h-6l0-0.7c0-2.7-1.7-4.1-5.1-4.1h-1v9.2
			l1.4,0.1c4.6,0.3,7.8,1.1,9.4,2.4c1.6,1.4,2.4,3.9,2.4,7.5C86.2,82,85.3,84.8,83.6,86.4z"/>
	</g>
</g>
<g id="Layer_2">
</g>
</svg>
