<?xml version="1.0" encoding="utf-8"?>
<!-- Generator: Adobe Illustrator 18.1.1, SVG Export Plug-In . SVG Version: 6.00 Build 0)  -->
<svg version="1.1" xmlns="http://www.w3.org/2000/svg" xmlns:xlink="http://www.w3.org/1999/xlink" x="0px" y="0px"
	 viewBox="0 0 141.7 141.7" enable-background="new 0 0 141.7 141.7" xml:space="preserve">
<g id="Layer_1">
	<circle cx="70.9" cy="70.9" r="64"/>
	<g>
		<g>
			<path fill="#FFFFFF" d="M73.8,74.6h25.7V56.4c0-4.2-3.4-7.6-7.6-7.6H73.8V74.6z"/>
			<path fill="#FFFFFF" d="M68.2,74.6V48.9H49.9c-4.2,0-7.6,3.4-7.6,7.6v18.2H68.2z"/>
			<path fill="#FFFFFF" d="M73.8,80.3V106H92c4.2,0,7.6-3.4,7.6-7.6V80.3H73.8z"/>
			<path fill="#FFFFFF" d="M68.2,80.3H42.4v18.2c0,4.2,3.4,7.6,7.6,7.6h18.2V80.3z"/>
		</g>
		<path fill="#FFFFFF" d="M87.7,44l-1.3-5.9l-1.3-5.9c-0.4-2-2.9-2.8-4.4-1.4l-4.5,4.1L73.9,37c-0.8-0.7-1.9-1.1-3.1-1.1
			s-2.2,0.4-3.1,1.1l-2.3-2.1L61,30.8c-1.5-1.4-4-0.6-4.4,1.4l-1.3,5.9L54,44c-0.4,2,1.5,3.8,3.4,3.1l5.8-1.8l4.3-1.4
			c0.9,0.8,2,1.4,3.3,1.4c1.3,0,2.5-0.5,3.3-1.4l4.3,1.4l5.8,1.8C86.2,47.8,88.1,46,87.7,44z"/>
	</g>
</g>
<g id="Layer_2">
</g>
</svg>
