<?xml version="1.0" encoding="utf-8"?>
<!-- Generator: Adobe Illustrator 18.1.1, SVG Export Plug-In . SVG Version: 6.00 Build 0)  -->
<svg version="1.1" xmlns="http://www.w3.org/2000/svg" xmlns:xlink="http://www.w3.org/1999/xlink" x="0px" y="0px"
	 viewBox="0 0 141.7 141.7" enable-background="new 0 0 141.7 141.7" xml:space="preserve">
<g id="Layer_1">
	<circle cx="70.9" cy="70.9" r="64"/>
	<g>
		<rect x="46.8" y="31.8" fill="none" stroke="#FFFFFF" stroke-width="2.4155" stroke-miterlimit="10" width="51.2" height="28.7"/>
		<rect x="28.8" y="74.8" fill="#FFFFFF" width="86.2" height="32.9"/>
		<rect x="36.8" y="87.2" width="4.1" height="4.2"/>
		<rect x="42.7" y="87.2" width="4.1" height="4.2"/>
		<rect x="48.7" y="87.2" width="4.1" height="4.2"/>
		<rect x="54.6" y="87.2" width="4.1" height="4.2"/>
		<rect x="60.5" y="87.2" width="4.1" height="4.2"/>
		<rect x="66.5" y="87.2" width="4.1" height="4.2"/>
		<rect x="72.4" y="87.2" width="4.1" height="4.2"/>
		<rect x="78.3" y="87.2" width="4.1" height="4.2"/>
		<rect x="84.3" y="87.2" width="4.1" height="4.2"/>
		<rect x="90.2" y="87.2" width="4.1" height="4.2"/>
		<rect x="96.1" y="87.2" width="4.1" height="4.2"/>
		<rect x="102.1" y="87.2" width="4.1" height="4.2"/>
		<rect x="39.6" y="93.2" width="4.1" height="4.2"/>
		<rect x="45.5" y="93.2" width="4.1" height="4.2"/>
		<rect x="51.5" y="93.2" width="4.1" height="4.2"/>
		<rect x="57.4" y="93.2" width="4.1" height="4.2"/>
		<rect x="63.3" y="93.2" width="4.1" height="4.2"/>
		<rect x="69.3" y="93.2" width="4.1" height="4.2"/>
		<rect x="75.2" y="93.2" width="4.1" height="4.2"/>
		<rect x="81.1" y="93.2" width="4.1" height="4.2"/>
		<rect x="87.1" y="93.2" width="4.1" height="4.2"/>
		<rect x="93" y="93.2" width="4.1" height="4.2"/>
		<rect x="98.9" y="93.2" width="4.1" height="4.2"/>
		<rect x="36.8" y="99.3" width="4.1" height="4.2"/>
		<rect x="42.7" y="99.3" width="4.1" height="4.2"/>
		<rect x="48.7" y="99.3" width="4.1" height="4.2"/>
		<rect x="54.6" y="99.3" width="4.1" height="4.2"/>
		<rect x="60.5" y="99.3" width="4.1" height="4.2"/>
		<rect x="66.5" y="99.3" width="4.1" height="4.2"/>
		<rect x="72.4" y="99.3" width="4.1" height="4.2"/>
		<rect x="78.3" y="99.3" width="4.1" height="4.2"/>
		<rect x="84.3" y="99.3" width="4.1" height="4.2"/>
		<rect x="90.2" y="99.3" width="4.1" height="4.2"/>
		<rect x="96.1" y="99.3" width="4.1" height="4.2"/>
		<rect x="102.1" y="99.3" width="4.1" height="4.2"/>
		<rect x="50.8" y="40.2" fill="#FFFFFF" width="33.9" height="2.5"/>
		<rect x="50.8" y="45.1" fill="#FFFFFF" width="39.5" height="2.5"/>
		<rect x="50.8" y="49.9" fill="#FFFFFF" width="39.5" height="2.5"/>
		<rect x="50.8" y="54.8" fill="#FFFFFF" width="39.5" height="2.5"/>
		<path fill="#FFFFFF" d="M107.7,58H36c-4,0-7.2,3.2-7.2,7.2v4.9H115v-4.9C115,61.2,111.7,58,107.7,58z M100.6,66.7H44.1v-3.9h56.5
			V66.7z"/>
	</g>
</g>
<g id="Layer_2">
</g>
</svg>
