<?xml version="1.0" encoding="utf-8"?>
<!-- Generator: Adobe Illustrator 18.1.1, SVG Export Plug-In . SVG Version: 6.00 Build 0)  -->
<svg version="1.1" xmlns="http://www.w3.org/2000/svg" xmlns:xlink="http://www.w3.org/1999/xlink" x="0px" y="0px"
	 viewBox="0 0 141.7 141.7" enable-background="new 0 0 141.7 141.7" xml:space="preserve">
<g id="Layer_1">
	<circle cx="70.9" cy="70.9" r="64"/>
	<g>
		<path fill="#FFFFFF" d="M54.1,99h-9.5c-2.1,0-3.9-1.8-3.9-3.9V63.6c0-2.1,1.8-3.9,3.9-3.9h9.5c2.1,0,3.9,1.8,3.9,3.9v31.5
			C58,97.2,56.3,99,54.1,99z"/>
		<path fill="#FFFFFF" d="M75.2,99h-9.8c-2.1,0-3.8-1.7-3.8-3.8V54.7c0-2.1,1.7-3.8,3.8-3.8h9.8c2.1,0,3.8,1.7,3.8,3.8v40.5
			C79,97.3,77.3,99,75.2,99z"/>
		<path fill="#FFFFFF" d="M95.9,99h-9.3c-2.2,0-4-1.8-4-4V43.8c0-2.2,1.8-4,4-4h9.3c2.2,0,4,1.8,4,4V95C99.9,97.2,98.1,99,95.9,99z"
			/>
	</g>
</g>
<g id="Layer_2">
</g>
</svg>
