<?xml version="1.0" encoding="utf-8"?>
<!-- Generator: Adobe Illustrator 18.1.1, SVG Export Plug-In . SVG Version: 6.00 Build 0)  -->
<svg version="1.1" xmlns="http://www.w3.org/2000/svg" xmlns:xlink="http://www.w3.org/1999/xlink" x="0px" y="0px"
	 viewBox="0 0 141.7 141.7" enable-background="new 0 0 141.7 141.7" xml:space="preserve">
<g id="Layer_1">
	<circle cx="70.9" cy="70.9" r="64"/>
	<g>
		<g>
			<path fill="#808184" d="M65.1,100.9L65.1,100.9L65.1,100.9z"/>
			<g>
				<path fill="#FFFFFF" d="M81.1,97.9H58.7c-0.4,0-0.8-0.1-1.1-0.3c-0.4-0.2-3.7-2-3.7-8.1c0-8-1.2-10.1-3-12.3
					c-3.3-4-7.6-10.4-7.6-18.4c0-14.4,11.7-26.1,26.1-26.1h1.2c14.4,0,26.1,11.7,26.1,26.1c0,8.1-4.4,14.4-7.6,18.4
					c-1.7,2.2-3,4.3-3,12.3c0,6.1-3.3,7.9-3.7,8.1C81.9,97.9,81.5,97.9,81.1,97.9"/>
				<path fill="#FFFFFF" d="M79.7,102.2c0,4.2-4.4,7.7-9.8,7.7c-4.1,0-7.7-2-9.1-4.8c-0.5-0.9-0.7-1.9-0.7-2.9"/>
			</g>
		</g>
		<g>
			<path d="M66.9,76.1c0,1.6,1.3,2.9,2.9,2.9c1.6,0,2.9-1.3,2.9-2.9c0-1.6-1.3-2.9-2.9-2.9C68.3,73.2,66.9,74.5,66.9,76.1L66.9,76.1
				z"/>
			<path d="M82.6,63.2c0.4,0,0.8-0.2,1.1-0.5c0.6-0.6,0.5-1.6-0.1-2.2c-3.8-3.4-8.6-5.4-13.8-5.4c-5.1,0-9.9,1.9-13.6,5.3
				c-0.6,0.6-0.7,1.6-0.1,2.2c0.6,0.6,1.6,0.7,2.2,0.1c3.2-2.9,7.3-4.5,11.6-4.5c4.3,0,8.5,1.6,11.6,4.5
				C81.8,63.1,82.2,63.2,82.6,63.2L82.6,63.2z M82.6,63.2"/>
			<path d="M76.8,70.2c0.4,0,0.8-0.2,1.1-0.5c0.6-0.6,0.5-1.6-0.1-2.2c-2.2-2-5-3.1-7.9-3.1c-2.9,0-5.7,1.1-7.9,3
				c-0.6,0.6-0.7,1.6-0.1,2.2c0.6,0.6,1.6,0.7,2.2,0.1c1.6-1.5,3.7-2.2,5.8-2.2c2.2,0,4.3,0.8,5.8,2.3C76,70.1,76.4,70.2,76.8,70.2
				L76.8,70.2z M76.8,70.2"/>
			<path d="M89.8,56.9c0.4,0,0.8-0.2,1.1-0.5c0.6-0.6,0.5-1.6-0.1-2.2C85.1,48.9,77.6,46,69.8,46c-7.8,0-15.2,2.9-20.9,8.1
				c-0.6,0.6-0.7,1.6-0.1,2.2c0.6,0.6,1.6,0.7,2.2,0.1c5.2-4.7,11.8-7.3,18.8-7.3c7.1,0,13.8,2.6,19,7.4
				C89.1,56.7,89.5,56.9,89.8,56.9L89.8,56.9z M89.8,56.9"/>
		</g>
	</g>
</g>
<g id="Layer_2">
</g>
</svg>
