<?xml version="1.0" encoding="utf-8"?>
<!-- Generator: Adobe Illustrator 18.1.1, SVG Export Plug-In . SVG Version: 6.00 Build 0)  -->
<svg version="1.1" xmlns="http://www.w3.org/2000/svg" xmlns:xlink="http://www.w3.org/1999/xlink" x="0px" y="0px"
	 viewBox="0 0 141.7 141.7" enable-background="new 0 0 141.7 141.7" xml:space="preserve">
<g id="Layer_1">
	<circle cx="70.9" cy="70.9" r="64"/>
	<g>
		<g>
			<rect x="35.3" y="48.9" fill="#FFFFFF" width="70.8" height="41.8"/>
			<ellipse cx="70.7" cy="70.4" rx="13.3" ry="17.2"/>
			
				<ellipse fill="none" stroke="#FFFFFF" stroke-width="0.5467" stroke-linecap="round" stroke-linejoin="round" stroke-miterlimit="10" cx="70.7" cy="70.4" rx="13.3" ry="17.2"/>
			
				<path fill="none" stroke="#FFFFFF" stroke-width="0.5467" stroke-linecap="round" stroke-linejoin="round" stroke-miterlimit="10" d="
				M70.7,86.6c-6.7,0-12.2-7.3-12.2-16.2S64,54.2,70.7,54.2c6.7,0,12.2,7.3,12.2,16.2S77.5,86.6,70.7,86.6z"/>
			<g>
				<g>
					<path fill="#FFFFFF" d="M71.7,65v4.3l0.6,0c2.1,0.1,3.6,0.5,4.3,1.1c0.7,0.6,1.1,1.8,1.1,3.4c0,1.8-0.4,3.1-1.2,3.8
						c-0.8,0.7-2.2,1.1-4.3,1.1l-0.6,0v1.9h-1.9v-1.9l-0.5,0c-2,0-3.4-0.3-4.3-1c-0.8-0.7-1.2-1.9-1.2-3.6l0-0.6h2.9v0.3
						c0,1,0.2,1.7,0.5,2c0.3,0.3,1.1,0.5,2.2,0.5l0.4,0v-4.6c-2.3,0-3.8-0.3-4.6-1s-1.2-1.9-1.2-3.7c0-1.7,0.4-2.9,1.2-3.6
						c0.8-0.6,2.4-1,4.6-1v-1.7h1.9v1.7c2.2,0,3.6,0.3,4.4,0.9c0.8,0.6,1.2,1.8,1.2,3.4v0.4h-2.8l0-0.3c0-1.3-0.8-1.9-2.4-1.9H71.7z
						 M69.7,64.9l-0.4,0c-1.7,0-2.6,0.7-2.6,2c0,1.4,0.8,2.1,2.5,2.1c0,0,0.2,0,0.4,0V64.9z M71.7,76.2h0.4c1.8,0,2.8-0.8,2.8-2.4
						c0-0.9-0.2-1.4-0.6-1.7c-0.4-0.3-1.3-0.4-2.6-0.4V76.2z"/>
				</g>
			</g>
			<g>
				<path d="M92.5,88.8c0.2-11.1,9.8-13.6,11.9-14v14H92.5z"/>
				<path d="M104,75.2v13.2H92.8C93.2,78.5,101.4,75.8,104,75.2 M104.7,74.4c0,0-12.6,1.7-12.6,14.7h12.6V74.4L104.7,74.4z"/>
			</g>
			<g>
				<path d="M37.1,50.8H49c-0.2,11-9.8,13.6-11.9,14V50.8z"/>
				<path d="M48.7,51.2c-0.4,10-8.6,12.6-11.2,13.2V51.2H48.7 M49.3,50.5H36.8v14.7C36.8,65.2,49.3,63.5,49.3,50.5L49.3,50.5z"/>
			</g>
			
				<rect x="36.8" y="50.5" fill="none" stroke="#000000" stroke-width="0.5467" stroke-linecap="round" stroke-linejoin="round" stroke-miterlimit="10" width="67.9" height="38.6"/>
		</g>
	</g>
</g>
<g id="Layer_2">
</g>
</svg>
