<?xml version="1.0" encoding="utf-8"?>
<!-- Generator: Adobe Illustrator 18.1.1, SVG Export Plug-In . SVG Version: 6.00 Build 0)  -->
<svg version="1.1" xmlns="http://www.w3.org/2000/svg" xmlns:xlink="http://www.w3.org/1999/xlink" x="0px" y="0px"
	 viewBox="0 0 141.7 141.7" enable-background="new 0 0 141.7 141.7" xml:space="preserve">
<g id="Layer_1">
	<circle cx="70.9" cy="70.9" r="64"/>
	<g>
		<g>
			<path fill="#FFFFFF" d="M97.7,67.4c6.2-10.5,2.6-24-7.9-30.2c-10.5-6.2-24-2.6-30.2,7.9c-5.2,8.9-3.5,20,3.6,26.9l-18.7,29.5
				c-1.2,2-0.5,4.5,1.5,5.7l4.2,2.5c2,1.2,4.5,0.5,5.7-1.5l16.6-30.8C81.9,80.2,92.4,76.4,97.7,67.4z M70.4,70.3
				c-7.8-4.5-10.4-14.5-5.8-22.3c4.5-7.8,14.5-10.4,22.3-5.8c7.8,4.5,10.4,14.5,5.8,22.3S78.2,74.9,70.4,70.3z"/>
			<path fill="none" stroke="#FFFFFF" stroke-width="1.0633" stroke-linecap="round" stroke-miterlimit="10" d="M85.1,45.3
				c6.1,3.6,8.1,11.4,4.6,17.5"/>
		</g>
	</g>
</g>
<g id="Layer_2">
</g>
</svg>
