<?xml version="1.0" encoding="utf-8"?>
<!-- Generator: Adobe Illustrator 18.1.1, SVG Export Plug-In . SVG Version: 6.00 Build 0)  -->
<svg version="1.1" xmlns="http://www.w3.org/2000/svg" xmlns:xlink="http://www.w3.org/1999/xlink" x="0px" y="0px"
	 viewBox="0 0 141.7 141.7" enable-background="new 0 0 141.7 141.7" xml:space="preserve">
<g id="Layer_1">
	<circle cx="70.9" cy="70.9" r="64"/>
	<g>
		<circle fill="#FFFFFF" cx="71.7" cy="90.5" r="3.4"/>
		<path fill="#FFFFFF" d="M71.6,82.3c-6.3,0-11.5,5.2-11.5,11.5s5.2,11.5,11.5,11.5c6.3,0,11.5-5.2,11.5-11.5S77.9,82.3,71.6,82.3z
			 M76.3,101.6v-2.4c0-2.6-2.1-4.7-4.7-4.7s-4.7,2.1-4.7,4.7v2.4c-2.6-1.6-4.4-4.5-4.4-7.8c0-5,4.1-9.1,9.1-9.1c5,0,9.1,4.1,9.1,9.1
			C80.6,97.1,78.9,100,76.3,101.6z"/>
	</g>
	<g>
		<circle fill="#FFFFFF" cx="105.8" cy="73.2" r="3.4"/>
		<path fill="#FFFFFF" d="M105.7,65c-6.3,0-11.5,5.2-11.5,11.5c0,6.3,5.2,11.5,11.5,11.5s11.5-5.2,11.5-11.5
			C117.2,70.2,112.1,65,105.7,65z M110.5,84.3v-2.4c0-2.6-2.1-4.7-4.7-4.7s-4.7,2.1-4.7,4.7v2.4c-2.6-1.6-4.4-4.5-4.4-7.8
			c0-5,4.1-9.1,9.1-9.1c5,0,9.1,4.1,9.1,9.1C114.8,79.8,113.1,82.7,110.5,84.3z"/>
	</g>
	<g>
		<circle fill="#FFFFFF" cx="38.1" cy="73.2" r="3.4"/>
		<path fill="#FFFFFF" d="M38,65c-6.3,0-11.5,5.2-11.5,11.5C26.5,82.9,31.7,88,38,88s11.5-5.2,11.5-11.5C49.5,70.2,44.3,65,38,65z
			 M42.7,84.3v-2.4c0-2.6-2.1-4.7-4.7-4.7s-4.7,2.1-4.7,4.7v2.4c-2.6-1.6-4.4-4.5-4.4-7.8c0-5,4.1-9.1,9.1-9.1c5,0,9.1,4.1,9.1,9.1
			C47.1,79.8,45.3,82.7,42.7,84.3z"/>
	</g>
	<g>
		<g>
			<defs>
				<rect id="SVGID_13_" x="55.7" y="56.7" width="32.4" height="18.4"/>
			</defs>
			<clipPath id="SVGID_2_">
				<use xlink:href="#SVGID_13_"  overflow="visible"/>
			</clipPath>
			<circle clip-path="url(#SVGID_2_)" fill="#FFFFFF" cx="71.9" cy="54.8" r="14.1"/>
		</g>
		<path fill="#FFFFFF" d="M76.3,47.5c-0.7,0.7-1,1.6-0.6,2.5c0.2,0.5,0.5,0.8,0.8,1.2c0.8,1,0.6,1.9-0.4,2.7
			c-0.5,0.4,0.2,1.1,0.7,0.7c0.8-0.6,1.3-1.5,1.2-2.6c-0.2-1.4-2.3-2.4-1-3.8C77.4,47.7,76.7,47,76.3,47.5L76.3,47.5z"/>
		<path fill="#FFFFFF" d="M71.3,45.9c-0.7,0.9-0.9,2-0.5,3.1c0.2,0.6,0.7,1,1,1.6c0.6,1.1,0.3,2.3-0.6,3.2c-0.5,0.5,0.3,1.3,0.8,0.8
			c0.8-0.8,1.3-1.9,1.2-3.1c-0.2-1.9-2.4-3-0.9-5C72.7,45.9,71.7,45.4,71.3,45.9L71.3,45.9z"/>
		<path fill="#FFFFFF" d="M66.3,47.5c-0.7,0.7-1,1.6-0.6,2.5c0.2,0.5,0.5,0.8,0.8,1.2c0.8,1,0.6,1.9-0.4,2.7
			c-0.5,0.4,0.2,1.1,0.7,0.7c0.8-0.6,1.3-1.5,1.2-2.6c-0.2-1.4-2.3-2.4-1-3.8C67.4,47.7,66.7,47,66.3,47.5L66.3,47.5z"/>
	</g>
	<path fill="#FFFFFF" d="M98,70l-9.2-5.7c1.6-2.8,2.5-6,2.5-9.4c0-10.7-8.7-19.4-19.4-19.4s-19.4,8.7-19.4,19.4
		c0,3.4,0.9,6.6,2.4,9.3L45.4,70l1.3,2.1l9.5-5.8c3.2,4.5,8.4,7.5,14.2,8v9.4h2.4v-9.3c6-0.3,11.3-3.3,14.7-7.9l9.3,5.7L98,70z
		 M71.9,71.8c-9.4,0-17-7.6-17-17c0-9.4,7.6-17,17-17s17,7.6,17,17C88.8,64.2,81.2,71.8,71.9,71.8z"/>
</g>
<g id="Layer_2">
</g>
</svg>
