<?xml version="1.0" encoding="utf-8"?>
<!-- Generator: Adobe Illustrator 18.1.1, SVG Export Plug-In . SVG Version: 6.00 Build 0)  -->
<svg version="1.1" xmlns="http://www.w3.org/2000/svg" xmlns:xlink="http://www.w3.org/1999/xlink" x="0px" y="0px"
	 viewBox="0 0 141.7 141.7" enable-background="new 0 0 141.7 141.7" xml:space="preserve">
<g id="Layer_1">
	<circle cx="70.9" cy="70.9" r="64"/>
	<g>
		<rect x="34.3" y="38.5" fill="#FFFFFF" width="42.1" height="59.6"/>
		<rect x="80.1" y="56.7" fill="#FFFFFF" width="29.3" height="41.5"/>
		<rect x="41.3" y="45.8" width="4.3" height="8.3"/>
		<rect x="53.2" y="45.8" width="4.3" height="8.3"/>
		<rect x="65.1" y="45.8" width="4.3" height="8.3"/>
		<rect x="41.2" y="63.2" width="4.3" height="8.3"/>
		<rect x="53.1" y="63.2" width="4.3" height="8.3"/>
		<rect x="65" y="63.2" width="4.3" height="8.3"/>
		<rect x="86.6" y="63.2" width="4.3" height="8.3"/>
		<rect x="98.5" y="63.2" width="4.3" height="8.3"/>
		<rect x="86.6" y="80.1" width="4.3" height="8.3"/>
		<rect x="98.5" y="80.1" width="4.3" height="8.3"/>
		<rect x="41.3" y="80.1" width="4.3" height="8.3"/>
		<rect x="65.1" y="80.1" width="4.3" height="8.3"/>
	</g>
</g>
<g id="Layer_2">
</g>
</svg>
