<?xml version="1.0" encoding="utf-8"?>
<!-- Generator: Adobe Illustrator 18.1.1, SVG Export Plug-In . SVG Version: 6.00 Build 0)  -->
<svg version="1.1" xmlns="http://www.w3.org/2000/svg" xmlns:xlink="http://www.w3.org/1999/xlink" x="0px" y="0px"
	 viewBox="0 0 141.7 141.7" enable-background="new 0 0 141.7 141.7" xml:space="preserve">
<g id="Layer_1">
	<circle cx="70.9" cy="70.9" r="64"/>
	<g>
		
			<line fill="none" stroke="#FFFFFF" stroke-width="2.3854" stroke-linecap="round" stroke-linejoin="round" stroke-miterlimit="10" x1="68" y1="75" x2="41.7" y2="66.6"/>
		<g>
			
				<line fill="none" stroke="#FFFFFF" stroke-width="2.3854" stroke-linecap="round" stroke-linejoin="round" stroke-miterlimit="10" x1="80.9" y1="77.6" x2="108.5" y2="76.1"/>
			
				<line fill="none" stroke="#FFFFFF" stroke-width="2.3854" stroke-linecap="round" stroke-linejoin="round" stroke-miterlimit="10" x1="78.2" y1="72.2" x2="85.4" y2="61"/>
			
				<line fill="none" stroke="#FFFFFF" stroke-width="2.3854" stroke-linecap="round" stroke-linejoin="round" stroke-miterlimit="10" x1="70.1" y1="84.3" x2="63" y2="95.5"/>
			
				<line fill="none" stroke="#FFFFFF" stroke-width="2.3854" stroke-linecap="round" stroke-linejoin="round" stroke-miterlimit="10" x1="38.2" y1="58" x2="45.4" y2="46.8"/>
			
				<circle stroke="#FFFFFF" stroke-width="3.7544" stroke-linecap="round" stroke-linejoin="round" stroke-miterlimit="10" cx="35" cy="64.1" r="6.7"/>
			<path stroke="#FFFFFF" stroke-width="3.7544" stroke-linecap="round" stroke-linejoin="round" stroke-miterlimit="10" d="
				M95.4,54.9c0,3.4-2.8,6.2-6.2,6.2c-2,0-3.7-0.9-4.8-2.3c-0.8-1-1.3-2.4-1.3-3.8c0-3.4,2.8-6.2,6.2-6.2
				C92.6,48.7,95.4,51.5,95.4,54.9z"/>
			<path stroke="#FFFFFF" stroke-width="2.609" stroke-linecap="round" stroke-linejoin="round" stroke-miterlimit="10" d="
				M56.2,99.4c0-2.4,1.9-4.3,4.3-4.3c1.4,0,2.6,0.6,3.4,1.6c0.6,0.7,0.9,1.6,0.9,2.6c0,2.4-1.9,4.3-4.3,4.3S56.2,101.7,56.2,99.4z"
				/>
			
				<circle stroke="#FFFFFF" stroke-width="3.7544" stroke-linecap="round" stroke-linejoin="round" stroke-miterlimit="10" cx="74.2" cy="77.6" r="6.7"/>
			<path stroke="#FFFFFF" stroke-width="2.7999" stroke-linecap="round" stroke-linejoin="round" stroke-miterlimit="10" d="
				M52.8,42.2c0,2.5-2.1,4.6-4.6,4.6c-1.5,0-2.8-0.7-3.6-1.8c-0.6-0.8-1-1.8-1-2.8c0-2.5,2.1-4.6,4.6-4.6S52.8,39.7,52.8,42.2z"/>
			<path stroke="#FFFFFF" stroke-width="2.7999" stroke-linecap="round" stroke-linejoin="round" stroke-miterlimit="10" d="
				M117.7,75c0,2.5-2.1,4.6-4.6,4.6c-1.5,0-2.8-0.7-3.6-1.8c-0.6-0.8-1-1.8-1-2.8c0-2.5,2.1-4.6,4.6-4.6
				C115.7,70.5,117.7,72.5,117.7,75z"/>
		</g>
		
			<path fill="#005596" stroke="#4777AF" stroke-width="3.7544" stroke-linecap="round" stroke-linejoin="round" stroke-miterlimit="10" d="
			M53.9,45.3"/>
		
			<path fill="#005596" stroke="#4777AF" stroke-width="3.7544" stroke-linecap="round" stroke-linejoin="round" stroke-miterlimit="10" d="
			M38.2,58.2"/>
	</g>
</g>
<g id="Layer_2">
</g>
</svg>
