<?xml version="1.0" encoding="utf-8"?>
<!-- Generator: Adobe Illustrator 18.1.1, SVG Export Plug-In . SVG Version: 6.00 Build 0)  -->
<svg version="1.1" xmlns="http://www.w3.org/2000/svg" xmlns:xlink="http://www.w3.org/1999/xlink" x="0px" y="0px"
	 viewBox="0 0 141.7 141.7" enable-background="new 0 0 141.7 141.7" xml:space="preserve">
<g id="Layer_1">
	<circle cx="70.9" cy="70.9" r="64"/>
	<g>
		<path fill="#FFFFFF" d="M108.6,105.5H35.2c-2.5,0-4.6-1.7-4.4-3.6l1.3-20.4c0.1-1.8,2.1-3.3,4.4-3.3h70.6c2.4,0,4.3,1.4,4.4,3.3
			l1.3,20.4C113.1,103.9,111.1,105.5,108.6,105.5z"/>
		<rect x="39.6" y="83.2" width="3.7" height="2.7"/>
		<rect x="45.1" y="83.2" width="3.7" height="2.7"/>
		<rect x="50.5" y="83.2" width="3.7" height="2.7"/>
		<rect x="56" y="83.2" width="3.7" height="2.7"/>
		<rect x="61.5" y="83.2" width="3.7" height="2.7"/>
		<rect x="66.9" y="83.2" width="3.7" height="2.7"/>
		<rect x="72.4" y="83.2" width="3.7" height="2.7"/>
		<rect x="77.8" y="83.2" width="3.7" height="2.7"/>
		<rect x="83.3" y="83.2" width="3.7" height="2.7"/>
		<rect x="88.8" y="83.2" width="3.7" height="2.7"/>
		<rect x="94.2" y="83.2" width="3.7" height="2.7"/>
		<rect x="99.7" y="83.2" width="3.7" height="2.7"/>
		<rect x="41.9" y="87.2" width="3.8" height="2.7"/>
		<rect x="47.4" y="87.2" width="3.8" height="2.7"/>
		<rect x="52.9" y="87.2" width="3.8" height="2.7"/>
		<rect x="58.4" y="87.2" width="3.8" height="2.7"/>
		<rect x="64" y="87.2" width="3.8" height="2.7"/>
		<rect x="69.5" y="87.2" width="3.8" height="2.7"/>
		<rect x="75" y="87.2" width="3.8" height="2.7"/>
		<rect x="80.5" y="87.2" width="3.8" height="2.7"/>
		<rect x="86.1" y="87.2" width="3.8" height="2.7"/>
		<rect x="91.6" y="87.2" width="3.8" height="2.7"/>
		<rect x="97.1" y="87.2" width="3.8" height="2.7"/>
		<rect x="38.3" y="91.2" width="3.9" height="2.7"/>
		<rect x="44" y="91.2" width="3.9" height="2.7"/>
		<rect x="49.7" y="91.2" width="3.9" height="2.7"/>
		<rect x="55.3" y="91.2" width="3.9" height="2.7"/>
		<rect x="61" y="91.2" width="3.9" height="2.7"/>
		<rect x="66.7" y="91.2" width="3.9" height="2.7"/>
		<rect x="72.4" y="91.2" width="3.9" height="2.7"/>
		<rect x="78.1" y="91.2" width="3.9" height="2.7"/>
		<rect x="83.8" y="91.2" width="3.9" height="2.7"/>
		<rect x="89.5" y="91.2" width="3.9" height="2.7"/>
		<rect x="95.2" y="91.2" width="3.9" height="2.7"/>
		<rect x="100.9" y="91.2" width="3.9" height="2.7"/>
		<path fill="#FFFFFF" d="M103.4,76.4H40.1c-4.6,0-8.4-3.7-8.4-8.4V38.9c0-4.6,3.7-8.4,8.4-8.4h63.2c4.6,0,8.4,3.7,8.4,8.4v29.2
			C111.7,72.7,108,76.4,103.4,76.4z"/>
		<rect x="35.3" y="34.5" width="72.8" height="37.9"/>
		<rect x="55.6" y="39.3" fill="#FFFFFF" width="32.4" height="1.8"/>
		<rect x="54.4" y="45" fill="#FFFFFF" width="34.7" height="1.8"/>
		<rect x="54.4" y="48.2" fill="#FFFFFF" width="34.7" height="1.8"/>
		<rect x="54.4" y="51.4" fill="#FFFFFF" width="34.7" height="1.8"/>
		<rect x="54.4" y="54.6" fill="#FFFFFF" width="34.7" height="1.8"/>
		<rect x="54.4" y="57.8" fill="#FFFFFF" width="34.7" height="1.8"/>
		<rect x="54.4" y="61" fill="#FFFFFF" width="21.7" height="1.8"/>
		<path d="M81.7,102.7H62.1c-1.2,0-2.1-0.9-2.1-2.1v-2.3c0-1.2,0.9-2.1,2.1-2.1h19.6c1.2,0,2.1,0.9,2.1,2.1v2.3
			C83.8,101.8,82.9,102.7,81.7,102.7z"/>
		<rect x="76.8" y="61" fill="#FFFFFF" width="0.4" height="1.8"/>
	</g>
</g>
<g id="Layer_2">
</g>
</svg>
