<?xml version="1.0" encoding="utf-8"?>
<!-- Generator: Adobe Illustrator 18.1.1, SVG Export Plug-In . SVG Version: 6.00 Build 0)  -->
<svg version="1.1" xmlns="http://www.w3.org/2000/svg" xmlns:xlink="http://www.w3.org/1999/xlink" x="0px" y="0px"
	 viewBox="0 0 141.7 141.7" enable-background="new 0 0 141.7 141.7" xml:space="preserve">
<g id="Layer_1">
	<circle cx="70.9" cy="70.9" r="64"/>
	<g>
		<g>
			<defs>
				<circle id="SVGID_9_" cx="70.9" cy="70.6" r="63.8"/>
			</defs>
			<clipPath id="SVGID_2_">
				<use xlink:href="#SVGID_9_"  overflow="visible"/>
			</clipPath>
			<g clip-path="url(#SVGID_2_)">
				<g>
					<path d="M96.4,76.1c7.4,20.2-3.5,40.2-24.5,44.8s-44-8.1-51.4-28.2S24,52.5,45,47.9S89,56,96.4,76.1z"/>
					<g>
						<path fill="#FFFFFF" d="M96.7,72.7c-0.5-1.1-0.3-2.3,0.3-3.1c-1.2-0.2-2.3-0.9-3-1.9c-0.7-1.1-0.7-2.3-0.2-3.2
							c-1.2,0-2.4-0.6-3.2-1.6c-0.8-1-1-2.2-0.6-3.2c-1.1,0.1-2.4-0.3-3.3-1.2c-0.9-0.9-1.3-2.1-1.1-3.1c-1.1,0.3-2.4,0-3.4-0.7
							c-1-0.8-1.6-1.9-1.6-3c-1,0.4-2.3,0.4-3.5-0.3c-1.1-0.7-1.8-1.7-2-2.8c-0.9,0.6-2.2,0.7-3.4,0.1c-1.2-0.5-2-1.5-2.3-2.6
							c-0.8,0.7-2,1-3.3,0.6c-1.2-0.4-2.2-1.3-2.7-2.3c-0.7,0.8-1.8,1.2-3.1,1c-1.3-0.2-2.4-1-2.9-2c-0.6,0.9-1.6,1.5-2.9,1.4
							c-1.3,0-2.4-0.7-3.2-1.6c-0.4,1-1.4,1.7-2.6,1.8c-1.2,0.1-2.5-0.4-3.3-1.2c-0.3,1-1.1,1.9-2.2,2.2c-1.2,0.3-2.5,0-3.4-0.8
							c-0.1,1.1-0.7,2-1.9,2.5s-2.4,0.3-3.5-0.3c0.1,1.1-0.4,2.1-1.4,2.7c-1,0.6-2.3,0.6-3.4,0.1c0.2,1.1-0.1,2.2-1,2.9
							c-0.9,0.7-2.1,0.9-3.3,0.6c0.4,1.1,0.2,2.2-0.5,3.1c-0.8,0.9-2,1.2-3.1,1c0.5,1,0.6,2.2,0,3.2s-1.7,1.4-2.9,1.4
							c0.7,1,0.9,2.2,0.4,3.2c-0.5,1-1.5,1.7-2.6,1.8c0.8,0.9,1.2,2.1,0.9,3.2c-0.3,1.1-1.2,1.9-2.3,2.1c0.9,0.8,1.5,1.9,1.4,3.1
							c-0.1,1.2-0.9,2.1-1.9,2.5c1,0.7,1.7,1.7,1.8,2.9c0.1,1.2-0.5,2.2-1.5,2.7c1.1,0.5,1.9,1.5,2.2,2.7c0.2,1.2-0.2,2.3-1,2.9
							c1.1,0.4,2.1,1.3,2.5,2.4c0.4,1.2,0.2,2.3-0.6,3.1c1.2,0.2,2.3,1,2.8,2.1c0.6,1.1,0.5,2.3-0.1,3.2c1.2,0.1,2.4,0.7,3.1,1.8
							c0.7,1,0.8,2.2,0.4,3.2c1.2-0.1,2.4,0.4,3.3,1.4s1.2,2.1,0.9,3.2c1.1-0.2,2.4,0.1,3.4,1c1,0.8,1.4,2,1.3,3.1
							c1.1-0.4,2.4-0.2,3.4,0.5c1.1,0.7,1.7,1.8,1.8,2.9c1-0.5,2.3-0.5,3.4,0.1c1.2,0.6,1.9,1.6,2.2,2.7c0.9-0.6,2.1-0.8,3.4-0.4
							s2.1,1.4,2.5,2.5c0.8-0.7,2-1.1,3.2-0.8c1.3,0.3,2.3,1.1,2.8,2.2c0.6-0.9,1.7-1.4,3-1.2s2.4,0.8,3.1,1.8
							c0.5-0.9,1.5-1.6,2.7-1.6c1.3,0,2.5,0.5,3.3,1.4c0.3-1,1.2-1.8,2.4-2c1.2-0.2,2.5,0.2,3.4,1c0.2-1.1,0.9-2,2.1-2.3
							c1.2-0.4,2.4-0.1,3.4,0.6c0-1.1,0.6-2.1,1.7-2.6c1.1-0.5,2.4-0.4,3.4,0.1c-0.2-1.1,0.3-2.2,1.2-2.9c1-0.7,2.2-0.7,3.4-0.3
							c-0.3-1.1-0.1-2.2,0.8-3c0.8-0.8,2.1-1,3.2-0.8c-0.5-1.1-0.4-2.2,0.3-3.1c0.7-0.9,1.8-1.3,3-1.2c-0.6-1-0.7-2.2-0.2-3.2
							c0.5-1,1.6-1.6,2.8-1.6c-0.8-0.9-1.1-2.1-0.7-3.2c0.4-1.1,1.3-1.8,2.5-2c-0.9-0.8-1.3-2-1.1-3.1c0.2-1.1,1-2,2.1-2.3
							c-1-0.7-1.6-1.8-1.6-3c0-1.2,0.7-2.1,1.7-2.6c-1.1-0.6-1.8-1.6-2-2.8c-0.2-1.2,0.4-2.2,1.3-2.8c-1.1-0.5-2-1.4-2.4-2.6
							c-0.3-1.2,0-2.3,0.8-3C98.2,74.6,97.1,73.8,96.7,72.7z M75.5,114.1c-17.2,6.9-38.8-1.1-48.3-18S23.8,59.9,40.9,53
							s38.8,1.1,48.3,18S92.6,107.2,75.5,114.1z"/>
						<path fill="none" stroke="#FFFFFF" stroke-width="2.0347" stroke-miterlimit="10" d="M83.8,73.2c7.9,13.9,2.8,29.9-11.4,35.6
							c-14.2,5.7-32-0.9-39.9-14.9S29.8,64,43.9,58.3C58.1,52.6,76,59.3,83.8,73.2z"/>
						<path fill="none" stroke="#FFFFFF" stroke-width="0.6782" stroke-miterlimit="10" d="M87.1,71.9c8.9,15.7,3.1,33.6-12.8,40.1
							c-15.9,6.4-36.1-1.1-44.9-16.8s-3.1-33.6,12.8-40.1S78.2,56.2,87.1,71.9z"/>
					</g>
					<path stroke="#FFFFFF" stroke-width="2.2311" stroke-miterlimit="10" d="M107.9,88l-89,19.4c-4.4,1-9.3-1.7-10.9-6l-4.1-11
						c-1.6-4.3,0.8-8.5,5.2-9.5l89-19.4c4.4-1,9.3,1.7,10.9,6l4.1,11C114.6,82.7,112.3,87,107.9,88z"/>
				</g>
				<g>
					<polygon fill="#FFFFFF" points="91.8,31.3 97.4,40.9 79.7,44.7 62.1,48.5 74.2,35.1 86.3,21.7 					"/>
					<g>
						<polygon points="70,40.4 73.1,45.7 63.2,47.9 						"/>
						<path fill="#FFFFFF" d="M69.9,41.1l1.3,2.2l1.3,2.2l-4.7,1l-3.4,0.7l2.3-2.6L69.9,41.1 M70,39.7l-4,4.4l-4,4.4l5.8-1.3
							l5.8-1.3l-1.8-3.2L70,39.7L70,39.7z"/>
					</g>
					<g>
						<path fill="#FFFFFF" d="M172-27l10.3,17.8l-84.6,49L87.4,22L172-27 M172.3-28.1l-86,49.8l11.1,19.2l86-49.8L172.3-28.1
							L172.3-28.1z"/>
					</g>
				</g>
			</g>
		</g>
	</g>
</g>
<g id="Layer_2">
</g>
</svg>
