<?xml version="1.0" encoding="utf-8"?>
<!-- Generator: Adobe Illustrator 18.1.1, SVG Export Plug-In . SVG Version: 6.00 Build 0)  -->
<svg version="1.1" xmlns="http://www.w3.org/2000/svg" xmlns:xlink="http://www.w3.org/1999/xlink" x="0px" y="0px"
	 viewBox="0 0 141.7 141.7" enable-background="new 0 0 141.7 141.7" xml:space="preserve">
<g id="Layer_1">
	<circle cx="70.9" cy="70.9" r="64"/>
	<g>
		<g>
			<path fill="#FFFFFF" d="M70.9,113.5c-23.5,0-42.7-19.1-42.7-42.7s19.1-42.7,42.7-42.7c23.5,0,42.7,19.1,42.7,42.7
				S94.5,113.5,70.9,113.5z M70.9,35.5c-19.5,0-35.3,15.8-35.3,35.3s15.8,35.3,35.3,35.3c19.5,0,35.3-15.8,35.3-35.3
				S90.4,35.5,70.9,35.5z"/>
			<g>
				<g>
					<g>
						<g>
							<g>
								<polygon fill="#FFFFFF" points="80.7,58.6 71.9,58.6 76.3,50.6 80.7,42.5 85.1,50.6 89.6,58.6 								"/>
							</g>
						</g>
						<rect x="76.4" y="57.6" fill="#FFFFFF" width="8.6" height="22.5"/>
					</g>
				</g>
				<g>
					<g>
						<g>
							<g>
								<polygon fill="#FFFFFF" points="61.2,83.2 70,83.2 65.6,91.2 61.2,99.2 56.7,91.2 52.3,83.2 								"/>
							</g>
						</g>
						<rect x="56.9" y="61.7" fill="#FFFFFF" width="8.6" height="22.9"/>
					</g>
				</g>
			</g>
		</g>
	</g>
</g>
<g id="Layer_2">
</g>
</svg>
