<?xml version="1.0" encoding="utf-8"?>
<!-- Generator: Adobe Illustrator 18.1.1, SVG Export Plug-In . SVG Version: 6.00 Build 0)  -->
<svg version="1.1" xmlns="http://www.w3.org/2000/svg" xmlns:xlink="http://www.w3.org/1999/xlink" x="0px" y="0px"
	 viewBox="0 0 141.7 141.7" enable-background="new 0 0 141.7 141.7" xml:space="preserve">
<g id="Layer_1">
	<circle cx="70.9" cy="70.9" r="64"/>
	<g>
		<path fill="#FFFFFF" d="M70.9,54.2H36.2c-3.5,0-4.8-4.6-1.7-6.4l12.8-7.5l21.9-12.9c1.1-0.6,2.4-0.6,3.5,0l21.9,12.9l12.8,7.5
			c3,1.8,1.8,6.4-1.7,6.4H70.9z"/>
		<path fill="#FFFFFF" d="M50.8,88.2L50.8,88.2c-1.6,0-2.9-1.3-2.9-2.9V59.3c0-1.6,1.3-2.9,2.9-2.9h0c1.6,0,2.9,1.3,2.9,2.9v25.9
			C53.7,86.9,52.4,88.2,50.8,88.2z"/>
		<path fill="#FFFFFF" d="M40.8,88.2L40.8,88.2c-1.6,0-2.9-1.3-2.9-2.9V59.3c0-1.6,1.3-2.9,2.9-2.9h0c1.6,0,2.9,1.3,2.9,2.9v25.9
			C43.7,86.9,42.4,88.2,40.8,88.2z"/>
		<path fill="#FFFFFF" d="M34.3,95.5L34.3,95.5c0-2.9,2.3-5.2,5.2-5.2h62.9c2.9,0,5.2,2.3,5.2,5.2v0c0,2.9-2.3,5.2-5.2,5.2H39.5
			C36.6,100.7,34.3,98.3,34.3,95.5z"/>
		<path fill="#FFFFFF" d="M60.6,88.2L60.6,88.2c-1.6,0-2.9-1.3-2.9-2.9V59.3c0-1.6,1.3-2.9,2.9-2.9h0c1.6,0,2.9,1.3,2.9,2.9v25.9
			C63.5,86.9,62.2,88.2,60.6,88.2z"/>
		<path fill="#FFFFFF" d="M80.2,88.2L80.2,88.2c-1.6,0-2.9-1.3-2.9-2.9V59.3c0-1.6,1.3-2.9,2.9-2.9h0c1.6,0,2.9,1.3,2.9,2.9v25.9
			C83.2,86.9,81.9,88.2,80.2,88.2z"/>
		<path fill="#FFFFFF" d="M90.1,88.2L90.1,88.2c-1.6,0-2.9-1.3-2.9-2.9V59.3c0-1.6,1.3-2.9,2.9-2.9h0c1.6,0,2.9,1.3,2.9,2.9v25.9
			C93,86.9,91.7,88.2,90.1,88.2z"/>
		<path fill="#FFFFFF" d="M99.9,88.2L99.9,88.2c-1.6,0-2.9-1.3-2.9-2.9V59.3c0-1.6,1.3-2.9,2.9-2.9h0c1.6,0,2.9,1.3,2.9,2.9v25.9
			C102.9,86.9,101.5,88.2,99.9,88.2z"/>
		<rect x="67.1" y="72.3" fill="#FFFFFF" width="6.7" height="15.1"/>
	</g>
</g>
<g id="Layer_2">
</g>
</svg>
