<?xml version="1.0" encoding="utf-8"?>
<!-- Generator: Adobe Illustrator 18.1.1, SVG Export Plug-In . SVG Version: 6.00 Build 0)  -->
<svg version="1.1" xmlns="http://www.w3.org/2000/svg" xmlns:xlink="http://www.w3.org/1999/xlink" x="0px" y="0px"
	 viewBox="0 0 141.7 141.7" enable-background="new 0 0 141.7 141.7" xml:space="preserve">
<g id="Layer_1">
	<circle cx="70.9" cy="70.9" r="64"/>
	<g>
		
			<circle stroke="#FFFFFF" stroke-width="4.7922" stroke-linecap="round" stroke-linejoin="round" stroke-miterlimit="10" cx="70.9" cy="70.9" r="40.9"/>
		<path fill="#FFFFFF" d="M77.3,64.4l-6.4-29.3l-6.4,29.3l-29.3,6.4l29.3,6.4l6.4,29.3l6.4-29.3l29.3-6.4L77.3,64.4z M70.9,74.9
			c-2.2,0-4-1.8-4-4c0-2.2,1.8-4,4-4s4,1.8,4,4C74.9,73.1,73.1,74.9,70.9,74.9z"/>
		<g>
			<path d="M70.9,76.5L55.1,86.6l10.1-15.8L55.1,55.1l15.8,10.1l15.8-10.1L76.5,70.9l10.1,15.8L70.9,76.5z M70.9,67.8
				c-0.8,0-1.6,0.3-2.2,0.9c-1.2,1.2-1.2,3.1,0,4.3c0.6,0.6,1.3,0.9,2.2,0.9s1.6-0.3,2.2-0.9s0.9-1.3,0.9-2.2c0-0.8-0.3-1.6-0.9-2.2
				S71.7,67.8,70.9,67.8z"/>
			<path fill="#FFFFFF" d="M56.3,56.3l14.1,9.1l0.4,0.3l0.4-0.3l14.1-9.1l-9.1,14.1l-0.3,0.4l0.3,0.4l9.1,14.1l-14.1-9.1l-0.4-0.3
				l-0.4,0.3l-14.1,9.1l9.1-14.1l0.3-0.4l-0.3-0.4L56.3,56.3 M70.9,74.3c0.9,0,1.8-0.4,2.4-1c0.6-0.6,1-1.5,1-2.4
				c0-0.9-0.4-1.8-1-2.4c-0.6-0.6-1.5-1-2.4-1c-0.9,0-1.8,0.4-2.4,1c-1.3,1.3-1.3,3.5,0,4.8C69.1,73.9,70,74.3,70.9,74.3 M53.9,53.9
				l10.9,17l-10.9,17l17-10.9l17,10.9L77,70.9l10.9-17l-17,10.9L53.9,53.9L53.9,53.9z M70.9,73.6c-0.7,0-1.4-0.3-1.9-0.8
				c-1-1-1-2.8,0-3.8c0.5-0.5,1.2-0.8,1.9-0.8c0.7,0,1.4,0.3,1.9,0.8c1,1,1,2.8,0,3.8C72.2,73.3,71.6,73.6,70.9,73.6L70.9,73.6z"/>
		</g>
	</g>
</g>
<g id="Layer_2">
</g>
</svg>
