<?xml version="1.0" encoding="utf-8"?>
<!-- Generator: Adobe Illustrator 18.1.1, SVG Export Plug-In . SVG Version: 6.00 Build 0)  -->
<svg version="1.1" xmlns="http://www.w3.org/2000/svg" xmlns:xlink="http://www.w3.org/1999/xlink" x="0px" y="0px"
	 viewBox="0 0 141.7 141.7" enable-background="new 0 0 141.7 141.7" xml:space="preserve">
<g id="Layer_1">
	<circle cx="70.9" cy="70.9" r="64"/>
	<g>
		<path fill="#FFFFFF" d="M74.8,80.1l-1.9,3.2c0,0,0,0.1,0,0.1c-1.3-0.2-2.5-0.2-3.7-0.1c0-0.1-0.1-0.1-0.1-0.2l-1.9-3.2
			c-0.3-0.5-1-0.7-1.6-0.4l-4,1.9c-0.6,0.3-0.9,1-0.7,1.5l1.3,3.4c0,0,0,0.1,0,0.1c-0.9,0.8-1.7,1.8-2.4,2.9c-0.1,0-0.2,0-0.2-0.1
			L56,88.8c-0.6-0.1-1.2,0.4-1.3,1l-1,4.3c-0.1,0.6,0.2,1.3,0.7,1.5l3.5,1.1c0,0,0.1,0,0.1,0c0.1,1.3,0.3,2.5,0.8,3.7
			c-0.1,0-0.1,0.1-0.2,0.1l-2.7,2.5c-0.4,0.4-0.4,1.1,0,1.6l2.8,3.4c0.4,0.5,1.1,0.7,1.6,0.3l3.1-2c0,0,0,0,0.1-0.1
			c1,0.7,2.1,1.3,3.4,1.7c0,0.1,0,0.2,0,0.2l0.3,3.7c0.1,0.6,0.6,1,1.3,1l4.4,0c0.6,0,1.2-0.5,1.3-1.1l0.3-3.7c0,0,0-0.1,0-0.1
			c1.2-0.4,2.3-0.9,3.4-1.6c0.1,0.1,0.1,0.1,0.2,0.2l3.1,2c0.5,0.3,1.2,0.2,1.6-0.3l2.7-3.5c0.4-0.5,0.4-1.2,0-1.7l-2.7-2.5
			c0,0-0.1,0-0.1-0.1c0.3-0.6,0.5-1.3,0.6-2c0.1-0.5,0.2-1.1,0.2-1.6c0.1,0,0.2,0,0.2,0l3.5-1.1c0.6-0.2,0.9-0.8,0.7-1.5l-1-4.3
			c-0.1-0.6-0.7-1.1-1.3-1l-3.6,0.5c0,0-0.1,0-0.1,0c-0.6-1.1-1.4-2.1-2.3-3c0-0.1,0.1-0.1,0.1-0.2l1.3-3.4c0.2-0.5-0.1-1.2-0.7-1.5
			l-4-1.9C75.8,79.4,75.1,79.6,74.8,80.1z M74.3,96.8c-0.5,2.1-2.5,3.4-4.6,2.9c-2.1-0.5-3.4-2.5-2.9-4.6c0.5-2.1,2.5-3.4,4.6-2.9
			C73.5,92.7,74.7,94.7,74.3,96.8z"/>
		<path fill="#FFFFFF" d="M93.9,59l0.7-4.4c0.1-0.6-0.3-1.3-0.8-1.4l-3.6-0.9c0,0,0,0,0,0c-0.1-2-0.4-3.9-1.1-5.7c0,0,0,0,0,0l3-2.1
			c0.5-0.3,0.6-1.1,0.3-1.6L90.2,39c-0.3-0.6-1-0.8-1.6-0.6L85.3,40c0,0,0,0,0,0c-1.3-1.4-2.8-2.7-4.5-3.7c0,0,0,0,0,0l0.9-3.5
			c0.2-0.6-0.2-1.2-0.8-1.4l-4.2-1.5c-0.6-0.2-1.3,0-1.6,0.6l-1.5,3.3c0,0,0,0,0,0c-2-0.3-3.9-0.3-5.8,0.1c0,0,0,0,0,0l-1.6-3.3
			c-0.2-0.5-0.9-0.8-1.6-0.5l-4.1,1.6c-0.6,0.2-1,0.9-0.8,1.4l1,3.5c0,0,0,0,0,0c-1.6,1-3.1,2.3-4.4,3.8c0,0,0,0,0,0l-3.3-1.5
			c-0.5-0.2-1.2,0-1.5,0.6l-2.2,3.9c-0.3,0.6-0.2,1.3,0.3,1.6l3,2.1c0,0,0,0,0,0c-0.6,1.9-0.9,3.8-1,5.7c0,0,0,0,0,0l-3.5,1
			c-0.6,0.2-0.9,0.8-0.8,1.4l0.8,4.4c0.1,0.6,0.7,1.1,1.3,1.1l3.7-0.3c0,0,0,0,0.1,0c0.7,1.8,1.7,3.5,3,5c0,0,0,0,0,0l-2.1,3
			c-0.3,0.5-0.2,1.2,0.3,1.6l3.4,2.8c0.5,0.4,1.2,0.4,1.7,0l2.6-2.6c0,0,0,0,0,0c0.8,0.5,1.7,0.8,2.7,1.2c0.9,0.3,1.9,0.6,2.8,0.8
			c0,0,0,0,0,0l0.3,3.7c0.1,0.6,0.6,1,1.3,1l4.4,0c0.6,0,1.2-0.5,1.3-1.1l0.3-3.7c0,0,0,0,0,0c1.9-0.4,3.8-1.1,5.5-2c0,0,0,0,0,0
			l2.6,2.6c0.4,0.4,1.2,0.4,1.6,0l3.4-2.9c0.5-0.4,0.6-1.1,0.3-1.6l-2.1-3c0,0,0,0,0,0c1.2-1.5,2.1-3.2,2.9-5.1c0,0,0,0,0.1,0
			l3.7,0.3C93.2,60.1,93.8,59.6,93.9,59z M69.7,56.2c-2-0.7-3-2.9-2.3-4.9c0.7-2,2.9-3,4.9-2.3c2,0.7,3,2.9,2.3,4.9
			C73.9,55.9,71.7,56.9,69.7,56.2z"/>
	</g>
</g>
<g id="Layer_2">
</g>
</svg>
