<?xml version="1.0" encoding="utf-8"?>
<!-- Generator: Adobe Illustrator 18.1.1, SVG Export Plug-In . SVG Version: 6.00 Build 0)  -->
<svg version="1.1" xmlns="http://www.w3.org/2000/svg" xmlns:xlink="http://www.w3.org/1999/xlink" x="0px" y="0px"
	 viewBox="0 0 141.7 141.7" enable-background="new 0 0 141.7 141.7" xml:space="preserve">
<g id="Layer_1">
	<circle cx="70.9" cy="70.9" r="64"/>
	<g>
		<line fill="none" stroke="#FFFFFF" stroke-width="5" stroke-miterlimit="10" x1="71.1" y1="83.3" x2="71.1" y2="45.1"/>
		<path fill="none" stroke="#FFFFFF" stroke-width="5" stroke-miterlimit="10" d="M38,79.9c0-8.4,6.9-15.2,15.2-15.2h35.7
			c8.4,0,15.2,6.9,15.2,15.2"/>
		<circle stroke="#FFFFFF" stroke-width="6.6496" stroke-miterlimit="10" cx="104.1" cy="88" r="7.6"/>
		<circle stroke="#FFFFFF" stroke-width="6.6496" stroke-miterlimit="10" cx="37.5" cy="88" r="7.6"/>
		<circle stroke="#FFFFFF" stroke-width="6.6496" stroke-miterlimit="10" cx="71.1" cy="88" r="7.6"/>
		<circle stroke="#FFFFFF" stroke-width="6.6496" stroke-miterlimit="10" cx="71.2" cy="40.2" r="7.6"/>
	</g>
	<g>
		<g>
			<defs>
				<circle id="SVGID_9_" cx="-102.4" cy="70.6" r="63.8"/>
			</defs>
			<clipPath id="SVGID_2_">
				<use xlink:href="#SVGID_9_"  overflow="visible"/>
			</clipPath>
			<g clip-path="url(#SVGID_2_)">
				<g>
					<g>
						<path fill="#FFFFFF" d="M-1.4-27L8.9-9.3l-84.6,49L-86,22L-1.4-27 M-1.1-28.1l-86,49.8l11.1,19.2L10-9L-1.1-28.1L-1.1-28.1z"
							/>
					</g>
				</g>
			</g>
		</g>
	</g>
</g>
<g id="Layer_2">
</g>
</svg>
