<?xml version="1.0" encoding="utf-8"?>
<!-- Generator: Adobe Illustrator 18.1.1, SVG Export Plug-In . SVG Version: 6.00 Build 0)  -->
<svg version="1.1" xmlns="http://www.w3.org/2000/svg" xmlns:xlink="http://www.w3.org/1999/xlink" x="0px" y="0px"
	 viewBox="0 0 141.7 141.7" enable-background="new 0 0 141.7 141.7" xml:space="preserve">
<g id="Layer_1">
	<circle cx="70.9" cy="70.9" r="64"/>
	<g>
		<g>
			<circle fill="#FFFFFF" stroke="#000000" stroke-width="2.0027" stroke-miterlimit="10" cx="72.8" cy="38.2" r="11.9"/>
			<path fill="#FFFFFF" stroke="#000000" stroke-width="2.0027" stroke-miterlimit="10" d="M89.2,86.5H55.8V68.9
				c0-9.2,7.5-16.7,16.7-16.7h0c9.2,0,16.7,7.5,16.7,16.7V86.5z"/>
		</g>
		<circle fill="#FFFFFF" stroke="#000000" stroke-width="2.0027" stroke-miterlimit="10" cx="92.7" cy="58.5" r="11.9"/>
		<g>
			<path fill="#FFFFFF" stroke="#000000" stroke-width="2.0027" stroke-miterlimit="10" d="M109.1,106.8H75.7V89.2
				c0-9.2,7.5-16.7,16.7-16.7h0c9.2,0,16.7,7.5,16.7,16.7V106.8z"/>
		</g>
		<g>
			<circle fill="#FFFFFF" stroke="#000000" stroke-width="2.0027" stroke-miterlimit="10" cx="50.5" cy="58.5" r="11.9"/>
			<path fill="#FFFFFF" stroke="#000000" stroke-width="2.0027" stroke-miterlimit="10" d="M66.9,106.8H33.5V89.2
				c0-9.2,7.5-16.7,16.7-16.7h0c9.2,0,16.7,7.5,16.7,16.7V106.8z"/>
		</g>
	</g>
</g>
<g id="Layer_2">
</g>
</svg>
