<?xml version="1.0" encoding="utf-8"?>
<!-- Generator: Adobe Illustrator 18.1.1, SVG Export Plug-In . SVG Version: 6.00 Build 0)  -->
<svg version="1.1" xmlns="http://www.w3.org/2000/svg" xmlns:xlink="http://www.w3.org/1999/xlink" x="0px" y="0px"
	 viewBox="0 0 141.7 141.7" enable-background="new 0 0 141.7 141.7" xml:space="preserve">
<g id="Layer_1">
	<circle cx="70.9" cy="70.9" r="64"/>
	<g>
		<g>
			<defs>
				<circle id="SVGID_11_" cx="70.9" cy="70.9" r="64.7"/>
			</defs>
			<clipPath id="SVGID_2_">
				<use xlink:href="#SVGID_11_"  overflow="visible"/>
			</clipPath>
			<polygon clip-path="url(#SVGID_2_)" fill="#FFFFFF" points="70.9,-32.8 114,-32.8 92.4,100.6 70.9,233.9 49.3,100.6 27.7,-32.8 
							"/>
		</g>
		<path d="M70.9,15h6.6c3.7,0,6,4,4.2,7.2l-3.3,5.7L75,33.6c-1.8,3.2-6.5,3.2-8.3,0l-3.3-5.7l-3.3-5.7C58.3,19,60.6,15,64.3,15H70.9
			z"/>
		<g>
			<path d="M70.9,38.4c-1.6,0-3.1-0.5-4.3-1.4l-5,70.2l9.3,11.7l9.3-11.7l-5.3-70C73.7,38,72.3,38.4,70.9,38.4z"/>
		</g>
	</g>
</g>
<g id="Layer_2">
</g>
</svg>
