<?xml version="1.0" encoding="utf-8"?>
<!-- Generator: Adobe Illustrator 18.1.1, SVG Export Plug-In . SVG Version: 6.00 Build 0)  -->
<svg version="1.1" xmlns="http://www.w3.org/2000/svg" xmlns:xlink="http://www.w3.org/1999/xlink" x="0px" y="0px"
	 viewBox="0 0 141.7 141.7" enable-background="new 0 0 141.7 141.7" xml:space="preserve">
<g id="Layer_1">
	<circle cx="70.9" cy="70.9" r="64"/>
	<g>
		<path fill="#FFFFFF" d="M92.8,109.1H49c-3.2,0-5.8-2.6-5.8-5.8V43.6c0-3.2,2.6-5.8,5.8-5.8h4.5v2.9H49c-1.6,0-2.9,1.3-2.9,2.9
			v59.7c0,1.6,1.3,2.9,2.9,2.9h43.8c1.6,0,2.9-1.3,2.9-2.9V43.6c0-1.6-1.3-2.9-2.9-2.9h-4.5v-2.9h4.5c3.2,0,5.8,2.6,5.8,5.8v59.7
			C98.6,106.5,96,109.1,92.8,109.1z"/>
		<path fill="#FFFFFF" d="M84.2,34.7h-3.7v-0.9c0-1.8-1.6-3.3-3.5-3.3H64.7c-1.9,0-3.5,1.5-3.5,3.3v0.9h-3.7c-1.7,0-3.1,1.3-3.1,2.9
			v4.2c0,1.6,1.4,2.9,3.1,2.9h26.7c1.7,0,3.1-1.3,3.1-2.9v-4.2C87.3,36,85.9,34.7,84.2,34.7z"/>
		<rect x="61.2" y="54.5" fill="#FFFFFF" width="28.9" height="3.3"/>
		<rect x="61.2" y="64.8" fill="#FFFFFF" width="28.9" height="3.3"/>
		<rect x="61.2" y="75.1" fill="#FFFFFF" width="28.9" height="3.3"/>
		<rect x="61.2" y="85.5" fill="#FFFFFF" width="28.9" height="3.3"/>
		<rect x="50.5" y="52.8" fill="none" stroke="#FFFFFF" stroke-width="0.6723" stroke-miterlimit="10" width="7.2" height="7.2"/>
		<polygon fill="#FFFFFF" points="51,55 54,58 60.9,51 54,56.3 		"/>
		<rect x="50.5" y="63" fill="none" stroke="#FFFFFF" stroke-width="0.6723" stroke-miterlimit="10" width="7.2" height="7.2"/>
		<polygon fill="#FFFFFF" points="51,65.1 54,68.1 60.9,61.2 54,66.4 		"/>
		<rect x="50.5" y="73.1" fill="none" stroke="#FFFFFF" stroke-width="0.6723" stroke-miterlimit="10" width="7.2" height="7.2"/>
		<polygon fill="#FFFFFF" points="51,75.3 54,78.3 60.9,71.3 54,76.6 		"/>
		<rect x="50.5" y="83.3" fill="none" stroke="#FFFFFF" stroke-width="0.6723" stroke-miterlimit="10" width="7.2" height="7.2"/>
		<polygon fill="#FFFFFF" points="51,85.5 54,88.4 60.9,81.5 54,86.7 		"/>
	</g>
</g>
<g id="Layer_2">
</g>
</svg>
