<svg id="Layer_1" data-name="Layer 1" xmlns="http://www.w3.org/2000/svg" viewBox="0 0 199.14 199.14"><defs><style>.cls-1{fill:#fff;}.cls-2{fill:#414042;}</style></defs><title>GoG_BrandStandards_R1</title><rect class="cls-1" width="199.14" height="199.14"/><path class="cls-2" d="M35.54,66.1s-3.56,5.14,4.25,13l24.52,24.52s2.73,2.32,5.05,0L87.1,85.83s2.5-2.7,0-5.2L62.66,56.19c-7.25-7.25-13-4.22-13-4.22L72.61,74.9c5.67,5.67-1.08,8.8-1.08,8.8L52.64,64.82a16.7,16.7,0,0,0-9.64-5s-0.15,4.7,4.89,9.74L66.78,88.45s-2.71,6.19-8.31.59L44.14,74.71Z"/><rect class="cls-2" x="79.67" y="93.37" width="6.57" height="11.73" transform="translate(-45.88 87.72) rotate(-45)"/><rect class="cls-2" x="107.16" y="90.83" width="10.63" height="75.27" transform="translate(-57.9 117.16) rotate(-45)"/><polygon class="cls-2" points="112.61 104.33 107.96 99.69 116.09 91.45 120.74 96.1 112.61 104.33"/><rect class="cls-2" x="48.63" y="121.63" width="74.03" height="10.63" transform="translate(-64.68 97.74) rotate(-45)"/><path class="cls-2" d="M143.35,93.65c7.07-9.89,22.1-32.91,15.45-40.16h0l-0.09-.08-0.08-.09h0c-7.25-6.65-30.28,8.38-40.16,15.45s-13,15-11,18.41,8.86,3.6,8.86,3.6l2.57,2.57,0.77,0.77,1.64,1.64s0.2,6.8,3.6,8.86S136.23,103.61,143.35,93.65Z"/><path class="cls-2" d="M99.57,190.9A91.34,91.34,0,1,1,190.9,99.57,91.44,91.44,0,0,1,99.57,190.9Zm0-171.67A80.34,80.34,0,1,0,179.9,99.57,80.43,80.43,0,0,0,99.57,19.23Z"/></svg>