<svg id="Layer_1" data-name="Layer 1" xmlns="http://www.w3.org/2000/svg" xmlns:xlink="http://www.w3.org/1999/xlink" viewBox="0 0 141.73 141.73"><defs><style>.cls-1{fill:none;}.cls-2{fill:#024f6e;}.cls-3{clip-path:url(#clip-path);}.cls-4{fill:#667581;}.cls-5{fill:#fff;}</style><clipPath id="clip-path"><circle class="cls-1" cx="71.68" cy="70.05" r="64.84"/></clipPath></defs><title>Icons_LW</title><circle class="cls-2" cx="71.68" cy="70.06" r="64.85"/><g class="cls-3"><polygon class="cls-4" points="71.68 -33.84 114.92 -33.84 93.3 99.82 71.68 233.48 50.05 99.82 28.43 -33.84 71.68 -33.84"/></g><path class="cls-5" d="M71.68,14.07h6.6a4.81,4.81,0,0,1,4.17,7.22L79.14,27l-3.3,5.71a4.81,4.81,0,0,1-8.34,0L64.21,27l-3.3-5.71a4.81,4.81,0,0,1,4.17-7.22h6.6Z"/><path class="cls-5" d="M71.68,37.54a7.17,7.17,0,0,1-4.32-1.42l-5,70.39,9.31,11.73L81,106.5,75.71,36.33A7.19,7.19,0,0,1,71.68,37.54Z"/></svg>