<svg id="Layer_1" data-name="Layer 1" xmlns="http://www.w3.org/2000/svg" viewBox="0 0 141.73 141.73"><defs><style>.cls-1{fill:#024f6e;}.cls-2{fill:#667581;}.cls-3{fill:#fff;}</style></defs><title>Icons_LW</title><circle class="cls-1" cx="71.68" cy="70.06" r="64.85"/><path class="cls-2" d="M75.56,75.67h34.77V51.06a10.22,10.22,0,0,0-10.22-10.22H75.56V75.67Z"/><path class="cls-2" d="M67.91,75.67V40.84H43.24A10.22,10.22,0,0,0,33,51.06V75.67H67.91Z"/><path class="cls-2" d="M75.56,83.32v34.83h24.55a10.22,10.22,0,0,0,10.22-10.22V83.32H75.56Z"/><path class="cls-2" d="M67.91,83.32H33v24.61a10.22,10.22,0,0,0,10.22,10.22H67.91V83.32Z"/><path class="cls-3" d="M94.32,34.28l-1.78-8-1.78-8a3.62,3.62,0,0,0-6-1.88l-6,5.55-3.07,2.82a6.4,6.4,0,0,0-8.29,0l-3.07-2.82-6-5.55a3.62,3.62,0,0,0-6,1.88l-1.78,8-1.78,8a3.62,3.62,0,0,0,4.63,4.24l7.83-2.46L67,34.22a6.41,6.41,0,0,0,9,0l5.87,1.85,7.82,2.46A3.62,3.62,0,0,0,94.32,34.28Z"/></svg>