<svg id="Layer_1" data-name="Layer 1" xmlns="http://www.w3.org/2000/svg" viewBox="0 0 141.73 141.73"><defs><style>.cls-1{fill:#9bb0c1;}.cls-2{fill:#fff;}.cls-3{fill:#024f6e;}</style></defs><title>Icons_LW</title><circle class="cls-1" cx="70.82" cy="70.29" r="64.57"/><circle class="cls-2" cx="71.72" cy="70.29" r="52.4"/><path class="cls-3" d="M75.34,80l-1.86,3.13,0,0.09a12.61,12.61,0,0,0-3.71-.05,1.22,1.22,0,0,0-.1-0.21l-1.86-3.13a1.22,1.22,0,0,0-1.58-.38l-3.94,1.93a1.24,1.24,0,0,0-.68,1.49l1.29,3.41,0,0.09a12.62,12.62,0,0,0-2.35,2.87l-0.23-.06-3.6-.5a1.22,1.22,0,0,0-1.29,1l-1,4.28a1.24,1.24,0,0,0,.74,1.46l3.47,1.12,0.09,0a12.6,12.6,0,0,0,.78,3.63,1.22,1.22,0,0,0-.19.15l-2.64,2.5a1.22,1.22,0,0,0,0,1.63l2.75,3.41a1.24,1.24,0,0,0,1.61.33l3-2,0.07-.06a12.59,12.59,0,0,0,3.32,1.65,1.22,1.22,0,0,0,0,.24l0.31,3.62a1.22,1.22,0,0,0,1.26,1l4.39,0a1.24,1.24,0,0,0,1.26-1L75,107.93s0-.06,0-0.1a12.71,12.71,0,0,0,3.36-1.57,1.22,1.22,0,0,0,.19.15l3,2a1.22,1.22,0,0,0,1.59-.34l2.72-3.45a1.24,1.24,0,0,0,0-1.64l-2.64-2.51-0.08-.06a12.48,12.48,0,0,0,.87-3.6l0.24,0,3.46-1.11a1.22,1.22,0,0,0,.73-1.46l-1-4.27a1.24,1.24,0,0,0-1.3-1l-3.61.5-0.1,0a12.73,12.73,0,0,0-2.27-2.93,1.22,1.22,0,0,0,.11-0.21l1.29-3.4a1.22,1.22,0,0,0-.69-1.48l-4-1.88A1.24,1.24,0,0,0,75.34,80ZM74.86,96.51A3.78,3.78,0,1,1,72,92,3.78,3.78,0,0,1,74.86,96.51Z"/><path class="cls-3" d="M94.27,60.87L95,56.54a1.24,1.24,0,0,0-.82-1.42l-3.52-.93h0a19.14,19.14,0,0,0-1.06-5.67l0,0,3-2.09a1.22,1.22,0,0,0,.26-1.61L90.6,41a1.24,1.24,0,0,0-1.54-.56L85.77,42l0,0a19,19,0,0,0-4.46-3.67l0,0,0.93-3.52a1.22,1.22,0,0,0-.84-1.4l-4.14-1.46a1.24,1.24,0,0,0-1.54.56L74.18,35.8v0a19,19,0,0,0-5.77.05v0l-1.55-3.29A1.22,1.22,0,0,0,65.3,32l-4.11,1.54A1.24,1.24,0,0,0,60.37,35l1,3.51,0,0A19.14,19.14,0,0,0,57,42.29l0,0-3.3-1.53a1.22,1.22,0,0,0-1.52.58l-2.16,3.82a1.24,1.24,0,0,0,.28,1.61l3,2.08,0,0a19.11,19.11,0,0,0-1,5.69h0l-3.51,1a1.22,1.22,0,0,0-.79,1.42l0.8,4.31A1.24,1.24,0,0,0,50,62.29L53.63,62h0.05a19.25,19.25,0,0,0,2.92,5l0,0-2.08,3a1.22,1.22,0,0,0,.31,1.6l3.39,2.79a1.24,1.24,0,0,0,1.64,0l2.57-2.59,0,0a19.32,19.32,0,0,0,5.44,1.92s0,0,0,0l0.33,3.62a1.22,1.22,0,0,0,1.26,1l4.39,0a1.24,1.24,0,0,0,1.26-1.05l0.3-3.63s0,0,0,0a19.25,19.25,0,0,0,5.4-2l0,0,2.58,2.57a1.22,1.22,0,0,0,1.63,0l3.33-2.85a1.24,1.24,0,0,0,.29-1.61l-2.1-3,0,0a19.11,19.11,0,0,0,2.83-5h0.05L93,61.94A1.22,1.22,0,0,0,94.27,60.87Zm-24-2.77a3.78,3.78,0,1,1,4.82-2.3A3.78,3.78,0,0,1,70.3,58.1Z"/></svg>