<svg id="Layer_1" data-name="Layer 1" xmlns="http://www.w3.org/2000/svg" viewBox="0 0 141.73 141.73"><defs><style>.cls-1{fill:#9bb0c1;}.cls-2{fill:#fff;}.cls-3{fill:#024f6e;}</style></defs><title>Icons_LW</title><circle class="cls-1" cx="71.72" cy="70.29" r="64.89"/><circle class="cls-2" cx="71.72" cy="70.29" r="52.66"/><path class="cls-3" d="M63,62.54q0,4.72,5.67,4.72l0.95,0.05V58l-0.92,0Q63,58,63,62.54Z"/><path class="cls-3" d="M79.63,74q-1.37-.92-5.72-0.92v10h0.92q6.17,0,6.17-5.3Q81,75,79.63,74Z"/><path class="cls-3" d="M71.72,35.87a34.43,34.43,0,1,0,34.43,34.43A34.43,34.43,0,0,0,71.72,35.87Zm13,50.32Q82,88.62,75.23,88.62l-1.32,0v4.25H69.59V88.64l-1.21,0q-6.78,0-9.53-2.32t-2.76-8.07l0-1.29h6.41V77.6q0,3.51,1.12,4.52t5,1l0.95,0V72.87q-7.57,0-10.34-2.19t-2.77-8.2q0-5.83,2.78-8t10.32-2.15V48.66h4.33v3.69q7.2,0,9.85,2.06t2.65,7.65v0.87h-6.2l0-.69q0-4.22-5.27-4.22h-1v9.49l1.42,0.05Q82.48,68,85,70.07t2.51,7.69Q87.49,83.77,84.76,86.19Z"/></svg>