<svg id="Layer_1" data-name="Layer 1" xmlns="http://www.w3.org/2000/svg" viewBox="0 0 141.73 141.73"><defs><style>.cls-1{fill:#024f6e;}.cls-2{fill:#667581;}.cls-3{fill:#fff;}.cls-4{fill:none;stroke:#fff;stroke-linecap:round;stroke-miterlimit:10;stroke-width:1.28px;}</style></defs><title>Icons_LW</title><circle class="cls-1" cx="71.68" cy="70.06" r="64.85"/><rect class="cls-2" x="26.57" y="55.58" width="24.64" height="55.8" rx="5.53" ry="5.53"/><rect class="cls-2" x="56.31" y="43.1" width="24.64" height="68.28" rx="5.38" ry="5.38"/><rect class="cls-2" x="86.04" y="27.21" width="24.64" height="84.16" rx="5.69" ry="5.69"/><path class="cls-3" d="M102.13,64.81a26.49,26.49,0,1,0-41.37,5.55L38.26,105.77a5,5,0,0,0,1.78,6.8l5.09,3a5,5,0,0,0,6.8-1.78L71.81,76.83A26.49,26.49,0,0,0,102.13,64.81ZM69.41,68.27a19.54,19.54,0,1,1,26.73-7A19.54,19.54,0,0,1,69.41,68.27Z"/><path class="cls-4" d="M87,38.2a15.32,15.32,0,0,1,5.47,21"/></svg>